<mxfile host="65bd71144e">
    <diagram id="FEKeomAr8xu8M4mcDsEi" name="Page-1">
        <mxGraphModel dx="3765" dy="2390" grid="1" gridSize="10" guides="1" tooltips="1" connect="1" arrows="1" fold="1" page="1" pageScale="1" pageWidth="850" pageHeight="1100" math="0" shadow="0">
            <root>
                <mxCell id="0"/>
                <mxCell id="1" parent="0"/>
                <mxCell id="2" value="&lt;b&gt;Trang chủ:&amp;nbsp;http://localhost:9000/&amp;nbsp;&lt;/b&gt;" style="text;html=1;strokeColor=none;fillColor=none;align=center;verticalAlign=middle;whiteSpace=wrap;rounded=0;" vertex="1" parent="1">
                    <mxGeometry x="40" y="10" width="270" height="30" as="geometry"/>
                </mxCell>
                <mxCell id="3" value="" style="rounded=0;whiteSpace=wrap;html=1;fillColor=#eeeeee;strokeColor=none;" vertex="1" parent="1">
                    <mxGeometry x="80" y="100" width="700" height="430" as="geometry"/>
                </mxCell>
                <mxCell id="4" value="" style="rounded=0;whiteSpace=wrap;html=1;fillColor=#1ba1e2;fontColor=#ffffff;strokeColor=none;" vertex="1" parent="1">
                    <mxGeometry x="80" y="50" width="700" height="50" as="geometry"/>
                </mxCell>
                <mxCell id="5" value="&lt;font color=&quot;#ff0000&quot;&gt;Logo&lt;/font&gt;" style="ellipse;whiteSpace=wrap;html=1;fillColor=none;" vertex="1" parent="1">
                    <mxGeometry x="110" y="62.5" width="43.75" height="25" as="geometry"/>
                </mxCell>
                <mxCell id="7" value="Nhân Viên" style="text;html=1;strokeColor=none;fillColor=none;align=center;verticalAlign=middle;whiteSpace=wrap;rounded=0;" vertex="1" parent="1">
                    <mxGeometry x="180" y="60" width="60" height="30" as="geometry"/>
                </mxCell>
                <mxCell id="8" value="Phòng Ban" style="text;html=1;strokeColor=none;fillColor=none;align=center;verticalAlign=middle;whiteSpace=wrap;rounded=0;" vertex="1" parent="1">
                    <mxGeometry x="254" y="60" width="80" height="30" as="geometry"/>
                </mxCell>
                <mxCell id="9" value="Bảng Lương" style="text;html=1;strokeColor=none;fillColor=none;align=center;verticalAlign=middle;whiteSpace=wrap;rounded=0;" vertex="1" parent="1">
                    <mxGeometry x="344" y="60" width="80" height="30" as="geometry"/>
                </mxCell>
                <mxCell id="10" value="Nhân viên" style="rounded=1;whiteSpace=wrap;html=1;fillColor=#d0cee2;strokeColor=none;align=left;" vertex="1" parent="1">
                    <mxGeometry x="112" y="110" width="240" height="30" as="geometry"/>
                </mxCell>
                <mxCell id="11" value="&lt;font color=&quot;#b3b3b3&quot;&gt;Tên nhân viên&lt;/font&gt;" style="rounded=0;whiteSpace=wrap;html=1;fillColor=none;strokeColor=#000000;align=left;" vertex="1" parent="1">
                    <mxGeometry x="437" y="110" width="127" height="30" as="geometry"/>
                </mxCell>
                <mxCell id="12" value="&lt;font color=&quot;#000000&quot;&gt;Filter&lt;/font&gt;" style="text;html=1;align=center;verticalAlign=middle;whiteSpace=wrap;rounded=0;fillColor=none;strokeColor=none;" vertex="1" parent="1">
                    <mxGeometry x="377" y="110" width="60" height="30" as="geometry"/>
                </mxCell>
                <mxCell id="15" value="&lt;font color=&quot;#b3b3b3&quot;&gt;Mặc định&lt;/font&gt;" style="rounded=0;whiteSpace=wrap;html=1;fillColor=none;strokeColor=#000000;align=left;" vertex="1" parent="1">
                    <mxGeometry x="646" y="110" width="80" height="30" as="geometry"/>
                </mxCell>
                <mxCell id="16" value="&lt;font color=&quot;#000000&quot;&gt;Hiển thị&lt;/font&gt;" style="text;html=1;align=center;verticalAlign=middle;whiteSpace=wrap;rounded=0;fillColor=none;strokeColor=none;" vertex="1" parent="1">
                    <mxGeometry x="586" y="110" width="60" height="30" as="geometry"/>
                </mxCell>
                <mxCell id="18" value="" style="triangle;html=1;whiteSpace=wrap;rotation=90;fillColor=none;strokeColor=#000000;" vertex="1" parent="1">
                    <mxGeometry x="710" y="120.5" width="6" height="9" as="geometry"/>
                </mxCell>
                <mxCell id="20" value="" style="rounded=1;whiteSpace=wrap;html=1;absoluteArcSize=1;arcSize=14;strokeWidth=2;fillColor=#b1ddf0;strokeColor=#10739e;" vertex="1" parent="1">
                    <mxGeometry x="113.25" y="156" width="87.5" height="100" as="geometry"/>
                </mxCell>
                <mxCell id="21" value="&lt;font color=&quot;#ffffff&quot; style=&quot;font-size: 7px&quot;&gt;Image&lt;/font&gt;" style="shape=actor;whiteSpace=wrap;html=1;fontColor=#B3B3B3;strokeColor=#004C99;gradientColor=none;" vertex="1" parent="1">
                    <mxGeometry x="140.32999999999998" y="166" width="33.34" height="50" as="geometry"/>
                </mxCell>
                <mxCell id="22" value="&lt;font style=&quot;font-size: 8px&quot;&gt;Tên nhân viên&lt;/font&gt;" style="text;html=1;strokeColor=none;fillColor=none;align=center;verticalAlign=middle;whiteSpace=wrap;rounded=0;fontSize=7;fontColor=#FFFFFF;" vertex="1" parent="1">
                    <mxGeometry x="125.32999999999998" y="226" width="63.34" height="20" as="geometry"/>
                </mxCell>
                <mxCell id="24" value="" style="rounded=1;whiteSpace=wrap;html=1;absoluteArcSize=1;arcSize=14;strokeWidth=2;fillColor=#b1ddf0;strokeColor=#10739e;" vertex="1" parent="1">
                    <mxGeometry x="222.5" y="156" width="87.5" height="100" as="geometry"/>
                </mxCell>
                <mxCell id="25" value="&lt;font color=&quot;#ffffff&quot; style=&quot;font-size: 7px&quot;&gt;Image&lt;/font&gt;" style="shape=actor;whiteSpace=wrap;html=1;fontColor=#B3B3B3;strokeColor=#004C99;gradientColor=none;" vertex="1" parent="1">
                    <mxGeometry x="249.57999999999998" y="166" width="33.34" height="50" as="geometry"/>
                </mxCell>
                <mxCell id="26" value="&lt;font style=&quot;font-size: 8px&quot;&gt;Tên nhân viên&lt;/font&gt;" style="text;html=1;strokeColor=none;fillColor=none;align=center;verticalAlign=middle;whiteSpace=wrap;rounded=0;fontSize=7;fontColor=#FFFFFF;" vertex="1" parent="1">
                    <mxGeometry x="234.57999999999998" y="226" width="63.34" height="20" as="geometry"/>
                </mxCell>
                <mxCell id="27" value="" style="rounded=1;whiteSpace=wrap;html=1;absoluteArcSize=1;arcSize=14;strokeWidth=2;fillColor=#b1ddf0;strokeColor=#10739e;" vertex="1" parent="1">
                    <mxGeometry x="334" y="156" width="87.5" height="100" as="geometry"/>
                </mxCell>
                <mxCell id="28" value="&lt;font color=&quot;#ffffff&quot; style=&quot;font-size: 7px&quot;&gt;Image&lt;/font&gt;" style="shape=actor;whiteSpace=wrap;html=1;fontColor=#B3B3B3;strokeColor=#004C99;gradientColor=none;" vertex="1" parent="1">
                    <mxGeometry x="361.08" y="166" width="33.34" height="50" as="geometry"/>
                </mxCell>
                <mxCell id="29" value="&lt;font style=&quot;font-size: 8px&quot;&gt;Tên nhân viên&lt;/font&gt;" style="text;html=1;strokeColor=none;fillColor=none;align=center;verticalAlign=middle;whiteSpace=wrap;rounded=0;fontSize=7;fontColor=#FFFFFF;" vertex="1" parent="1">
                    <mxGeometry x="346.08" y="226" width="63.34" height="20" as="geometry"/>
                </mxCell>
                <mxCell id="62" value="" style="rounded=1;whiteSpace=wrap;html=1;absoluteArcSize=1;arcSize=14;strokeWidth=2;fillColor=#b1ddf0;strokeColor=#10739e;" vertex="1" parent="1">
                    <mxGeometry x="444" y="156" width="87.5" height="100" as="geometry"/>
                </mxCell>
                <mxCell id="63" value="&lt;font color=&quot;#ffffff&quot; style=&quot;font-size: 7px&quot;&gt;Image&lt;/font&gt;" style="shape=actor;whiteSpace=wrap;html=1;fontColor=#B3B3B3;strokeColor=#004C99;gradientColor=none;" vertex="1" parent="1">
                    <mxGeometry x="471.08" y="166" width="33.34" height="50" as="geometry"/>
                </mxCell>
                <mxCell id="64" value="&lt;font style=&quot;font-size: 8px&quot;&gt;Tên nhân viên&lt;/font&gt;" style="text;html=1;strokeColor=none;fillColor=none;align=center;verticalAlign=middle;whiteSpace=wrap;rounded=0;fontSize=7;fontColor=#FFFFFF;" vertex="1" parent="1">
                    <mxGeometry x="456.08" y="226" width="63.34" height="20" as="geometry"/>
                </mxCell>
                <mxCell id="65" value="" style="rounded=1;whiteSpace=wrap;html=1;absoluteArcSize=1;arcSize=14;strokeWidth=2;fillColor=#b1ddf0;strokeColor=#10739e;" vertex="1" parent="1">
                    <mxGeometry x="553.25" y="156" width="87.5" height="100" as="geometry"/>
                </mxCell>
                <mxCell id="66" value="&lt;font color=&quot;#ffffff&quot; style=&quot;font-size: 7px&quot;&gt;Image&lt;/font&gt;" style="shape=actor;whiteSpace=wrap;html=1;fontColor=#B3B3B3;strokeColor=#004C99;gradientColor=none;" vertex="1" parent="1">
                    <mxGeometry x="580.3299999999999" y="166" width="33.34" height="50" as="geometry"/>
                </mxCell>
                <mxCell id="67" value="&lt;font style=&quot;font-size: 8px&quot;&gt;Tên nhân viên&lt;/font&gt;" style="text;html=1;strokeColor=none;fillColor=none;align=center;verticalAlign=middle;whiteSpace=wrap;rounded=0;fontSize=7;fontColor=#FFFFFF;" vertex="1" parent="1">
                    <mxGeometry x="565.3299999999999" y="226" width="63.34" height="20" as="geometry"/>
                </mxCell>
                <mxCell id="68" value="" style="rounded=1;whiteSpace=wrap;html=1;absoluteArcSize=1;arcSize=14;strokeWidth=2;fillColor=#b1ddf0;strokeColor=#10739e;" vertex="1" parent="1">
                    <mxGeometry x="664.75" y="156" width="87.5" height="100" as="geometry"/>
                </mxCell>
                <mxCell id="69" value="&lt;font color=&quot;#ffffff&quot; style=&quot;font-size: 7px&quot;&gt;Image&lt;/font&gt;" style="shape=actor;whiteSpace=wrap;html=1;fontColor=#B3B3B3;strokeColor=#004C99;gradientColor=none;" vertex="1" parent="1">
                    <mxGeometry x="691.8299999999999" y="166" width="33.34" height="50" as="geometry"/>
                </mxCell>
                <mxCell id="70" value="&lt;font style=&quot;font-size: 8px&quot;&gt;Tên nhân viên&lt;/font&gt;" style="text;html=1;strokeColor=none;fillColor=none;align=center;verticalAlign=middle;whiteSpace=wrap;rounded=0;fontSize=7;fontColor=#FFFFFF;" vertex="1" parent="1">
                    <mxGeometry x="676.8299999999999" y="226" width="63.34" height="20" as="geometry"/>
                </mxCell>
                <mxCell id="71" value="" style="rounded=1;whiteSpace=wrap;html=1;absoluteArcSize=1;arcSize=14;strokeWidth=2;fillColor=#b1ddf0;strokeColor=#10739e;" vertex="1" parent="1">
                    <mxGeometry x="113.25" y="276" width="87.5" height="100" as="geometry"/>
                </mxCell>
                <mxCell id="72" value="&lt;font color=&quot;#ffffff&quot; style=&quot;font-size: 7px&quot;&gt;Image&lt;/font&gt;" style="shape=actor;whiteSpace=wrap;html=1;fontColor=#B3B3B3;strokeColor=#004C99;gradientColor=none;" vertex="1" parent="1">
                    <mxGeometry x="140.32999999999998" y="286" width="33.34" height="50" as="geometry"/>
                </mxCell>
                <mxCell id="73" value="&lt;font style=&quot;font-size: 8px&quot;&gt;Tên nhân viên&lt;/font&gt;" style="text;html=1;strokeColor=none;fillColor=none;align=center;verticalAlign=middle;whiteSpace=wrap;rounded=0;fontSize=7;fontColor=#FFFFFF;" vertex="1" parent="1">
                    <mxGeometry x="125.32999999999998" y="346" width="63.34" height="20" as="geometry"/>
                </mxCell>
                <mxCell id="74" value="" style="rounded=1;whiteSpace=wrap;html=1;absoluteArcSize=1;arcSize=14;strokeWidth=2;fillColor=#b1ddf0;strokeColor=#10739e;" vertex="1" parent="1">
                    <mxGeometry x="222.5" y="276" width="87.5" height="100" as="geometry"/>
                </mxCell>
                <mxCell id="75" value="&lt;font color=&quot;#ffffff&quot; style=&quot;font-size: 7px&quot;&gt;Image&lt;/font&gt;" style="shape=actor;whiteSpace=wrap;html=1;fontColor=#B3B3B3;strokeColor=#004C99;gradientColor=none;" vertex="1" parent="1">
                    <mxGeometry x="249.57999999999998" y="286" width="33.34" height="50" as="geometry"/>
                </mxCell>
                <mxCell id="76" value="&lt;font style=&quot;font-size: 8px&quot;&gt;Tên nhân viên&lt;/font&gt;" style="text;html=1;strokeColor=none;fillColor=none;align=center;verticalAlign=middle;whiteSpace=wrap;rounded=0;fontSize=7;fontColor=#FFFFFF;" vertex="1" parent="1">
                    <mxGeometry x="234.57999999999998" y="346" width="63.34" height="20" as="geometry"/>
                </mxCell>
                <mxCell id="77" value="" style="rounded=1;whiteSpace=wrap;html=1;absoluteArcSize=1;arcSize=14;strokeWidth=2;fillColor=#b1ddf0;strokeColor=#10739e;" vertex="1" parent="1">
                    <mxGeometry x="334" y="276" width="87.5" height="100" as="geometry"/>
                </mxCell>
                <mxCell id="78" value="&lt;font color=&quot;#ffffff&quot; style=&quot;font-size: 7px&quot;&gt;Image&lt;/font&gt;" style="shape=actor;whiteSpace=wrap;html=1;fontColor=#B3B3B3;strokeColor=#004C99;gradientColor=none;" vertex="1" parent="1">
                    <mxGeometry x="361.08" y="286" width="33.34" height="50" as="geometry"/>
                </mxCell>
                <mxCell id="79" value="&lt;font style=&quot;font-size: 8px&quot;&gt;Tên nhân viên&lt;/font&gt;" style="text;html=1;strokeColor=none;fillColor=none;align=center;verticalAlign=middle;whiteSpace=wrap;rounded=0;fontSize=7;fontColor=#FFFFFF;" vertex="1" parent="1">
                    <mxGeometry x="346.08" y="346" width="63.34" height="20" as="geometry"/>
                </mxCell>
                <mxCell id="80" value="" style="rounded=1;whiteSpace=wrap;html=1;absoluteArcSize=1;arcSize=14;strokeWidth=2;fillColor=#b1ddf0;strokeColor=#10739e;" vertex="1" parent="1">
                    <mxGeometry x="444" y="276" width="87.5" height="100" as="geometry"/>
                </mxCell>
                <mxCell id="81" value="&lt;font color=&quot;#ffffff&quot; style=&quot;font-size: 7px&quot;&gt;Image&lt;/font&gt;" style="shape=actor;whiteSpace=wrap;html=1;fontColor=#B3B3B3;strokeColor=#004C99;gradientColor=none;" vertex="1" parent="1">
                    <mxGeometry x="471.08" y="286" width="33.34" height="50" as="geometry"/>
                </mxCell>
                <mxCell id="82" value="&lt;font style=&quot;font-size: 8px&quot;&gt;Tên nhân viên&lt;/font&gt;" style="text;html=1;strokeColor=none;fillColor=none;align=center;verticalAlign=middle;whiteSpace=wrap;rounded=0;fontSize=7;fontColor=#FFFFFF;" vertex="1" parent="1">
                    <mxGeometry x="456.08" y="346" width="63.34" height="20" as="geometry"/>
                </mxCell>
                <mxCell id="83" value="" style="rounded=1;whiteSpace=wrap;html=1;absoluteArcSize=1;arcSize=14;strokeWidth=2;fillColor=#b1ddf0;strokeColor=#10739e;" vertex="1" parent="1">
                    <mxGeometry x="553.25" y="276" width="87.5" height="100" as="geometry"/>
                </mxCell>
                <mxCell id="84" value="&lt;font color=&quot;#ffffff&quot; style=&quot;font-size: 7px&quot;&gt;Image&lt;/font&gt;" style="shape=actor;whiteSpace=wrap;html=1;fontColor=#B3B3B3;strokeColor=#004C99;gradientColor=none;" vertex="1" parent="1">
                    <mxGeometry x="580.3299999999999" y="286" width="33.34" height="50" as="geometry"/>
                </mxCell>
                <mxCell id="85" value="&lt;font style=&quot;font-size: 8px&quot;&gt;Tên nhân viên&lt;/font&gt;" style="text;html=1;strokeColor=none;fillColor=none;align=center;verticalAlign=middle;whiteSpace=wrap;rounded=0;fontSize=7;fontColor=#FFFFFF;" vertex="1" parent="1">
                    <mxGeometry x="565.3299999999999" y="346" width="63.34" height="20" as="geometry"/>
                </mxCell>
                <mxCell id="86" value="" style="rounded=1;whiteSpace=wrap;html=1;absoluteArcSize=1;arcSize=14;strokeWidth=2;fillColor=#b1ddf0;strokeColor=#10739e;" vertex="1" parent="1">
                    <mxGeometry x="664.75" y="276" width="87.5" height="100" as="geometry"/>
                </mxCell>
                <mxCell id="87" value="&lt;font color=&quot;#ffffff&quot; style=&quot;font-size: 7px&quot;&gt;Image&lt;/font&gt;" style="shape=actor;whiteSpace=wrap;html=1;fontColor=#B3B3B3;strokeColor=#004C99;gradientColor=none;" vertex="1" parent="1">
                    <mxGeometry x="691.8299999999999" y="286" width="33.34" height="50" as="geometry"/>
                </mxCell>
                <mxCell id="88" value="&lt;font style=&quot;font-size: 8px&quot;&gt;Tên nhân viên&lt;/font&gt;" style="text;html=1;strokeColor=none;fillColor=none;align=center;verticalAlign=middle;whiteSpace=wrap;rounded=0;fontSize=7;fontColor=#FFFFFF;" vertex="1" parent="1">
                    <mxGeometry x="676.8299999999999" y="346" width="63.34" height="20" as="geometry"/>
                </mxCell>
                <mxCell id="90" value="" style="rounded=0;whiteSpace=wrap;html=1;fontSize=8;fontColor=#FFFFFF;strokeColor=none;gradientColor=none;" vertex="1" parent="1">
                    <mxGeometry x="80" y="390" width="700" height="140" as="geometry"/>
                </mxCell>
                <mxCell id="91" value="&lt;h1&gt;Heading&lt;/h1&gt;&lt;p style=&quot;text-align: justify&quot;&gt;&lt;span style=&quot;font-family: , , &amp;#34;segoe ui&amp;#34; , &amp;#34;roboto&amp;#34; , &amp;#34;helvetica neue&amp;#34; , &amp;#34;arial&amp;#34; , &amp;#34;noto sans&amp;#34; , &amp;#34;liberation sans&amp;#34; , sans-serif , &amp;#34;apple color emoji&amp;#34; , &amp;#34;segoe ui emoji&amp;#34; , &amp;#34;segoe ui symbol&amp;#34; , &amp;#34;noto color emoji&amp;#34; ; background-color: rgb(33 , 37 , 41)&quot;&gt;&lt;font style=&quot;font-size: 10px&quot;&gt;Lorem ipsum dolor sit amet consectetur adipisicing elit. Molestiae modi cum ipsam ad, illo possimus laborum ut reiciendis obcaecati. Ducimus, quas. Corrupti, pariatur eaque? Reiciendis assumenda iusto sapiente inventore animi?&lt;/font&gt;&lt;/span&gt;&lt;br&gt;&lt;/p&gt;" style="text;html=1;strokeColor=none;fillColor=none;spacing=5;spacingTop=-20;whiteSpace=wrap;overflow=hidden;rounded=0;fontSize=8;fontColor=#FFFFFF;" vertex="1" parent="1">
                    <mxGeometry x="80" y="395" width="450" height="130" as="geometry"/>
                </mxCell>
                <mxCell id="92" value="&lt;b&gt;LINK&lt;/b&gt;" style="text;html=1;strokeColor=none;fillColor=none;align=center;verticalAlign=middle;whiteSpace=wrap;rounded=0;fontSize=10;fontColor=#FFFFFF;" vertex="1" parent="1">
                    <mxGeometry x="617" y="395" width="123.17" height="40" as="geometry"/>
                </mxCell>
                <mxCell id="93" value="Nhân viên" style="text;html=1;strokeColor=none;fillColor=none;align=center;verticalAlign=middle;whiteSpace=wrap;rounded=0;fontSize=10;fontColor=#FFFFFF;" vertex="1" parent="1">
                    <mxGeometry x="648.585" y="420" width="60" height="20" as="geometry"/>
                </mxCell>
                <mxCell id="94" value="Phòng Ban" style="text;html=1;strokeColor=none;fillColor=none;align=center;verticalAlign=middle;whiteSpace=wrap;rounded=0;fontSize=10;fontColor=#FFFFFF;" vertex="1" parent="1">
                    <mxGeometry x="648.585" y="435" width="60" height="20" as="geometry"/>
                </mxCell>
                <mxCell id="95" value="Bảng Lương" style="text;html=1;strokeColor=none;fillColor=none;align=center;verticalAlign=middle;whiteSpace=wrap;rounded=0;fontSize=10;fontColor=#FFFFFF;" vertex="1" parent="1">
                    <mxGeometry x="648.585" y="449" width="60" height="20" as="geometry"/>
                </mxCell>
                <mxCell id="98" value="&lt;b&gt;Phòng ban:&amp;nbsp;http://localhost:9000/department&amp;nbsp;&lt;/b&gt;" style="text;html=1;strokeColor=none;fillColor=none;align=center;verticalAlign=middle;whiteSpace=wrap;rounded=0;" vertex="1" parent="1">
                    <mxGeometry x="43" y="580" width="337" height="30" as="geometry"/>
                </mxCell>
                <mxCell id="99" value="" style="rounded=0;whiteSpace=wrap;html=1;fillColor=#eeeeee;strokeColor=none;" vertex="1" parent="1">
                    <mxGeometry x="80" y="670" width="700" height="280" as="geometry"/>
                </mxCell>
                <mxCell id="100" value="" style="rounded=0;whiteSpace=wrap;html=1;fillColor=#1ba1e2;fontColor=#ffffff;strokeColor=none;" vertex="1" parent="1">
                    <mxGeometry x="80" y="620" width="700" height="50" as="geometry"/>
                </mxCell>
                <mxCell id="101" value="&lt;font color=&quot;#ff0000&quot;&gt;Logo&lt;/font&gt;" style="ellipse;whiteSpace=wrap;html=1;fillColor=none;" vertex="1" parent="1">
                    <mxGeometry x="110" y="632.5" width="43.75" height="25" as="geometry"/>
                </mxCell>
                <mxCell id="102" value="Nhân Viên" style="text;html=1;strokeColor=none;fillColor=none;align=center;verticalAlign=middle;whiteSpace=wrap;rounded=0;" vertex="1" parent="1">
                    <mxGeometry x="180" y="630" width="60" height="30" as="geometry"/>
                </mxCell>
                <mxCell id="103" value="Phòng Ban" style="text;html=1;strokeColor=none;fillColor=none;align=center;verticalAlign=middle;whiteSpace=wrap;rounded=0;" vertex="1" parent="1">
                    <mxGeometry x="254" y="630" width="80" height="30" as="geometry"/>
                </mxCell>
                <mxCell id="104" value="Bảng Lương" style="text;html=1;strokeColor=none;fillColor=none;align=center;verticalAlign=middle;whiteSpace=wrap;rounded=0;" vertex="1" parent="1">
                    <mxGeometry x="344" y="630" width="80" height="30" as="geometry"/>
                </mxCell>
                <mxCell id="147" value="" style="rounded=0;whiteSpace=wrap;html=1;fontSize=8;fontColor=#FFFFFF;strokeColor=none;gradientColor=none;" vertex="1" parent="1">
                    <mxGeometry x="80" y="816" width="700" height="140" as="geometry"/>
                </mxCell>
                <mxCell id="148" value="&lt;h1&gt;Heading&lt;/h1&gt;&lt;p style=&quot;text-align: justify&quot;&gt;&lt;span style=&quot;font-family: , , &amp;#34;segoe ui&amp;#34; , &amp;#34;roboto&amp;#34; , &amp;#34;helvetica neue&amp;#34; , &amp;#34;arial&amp;#34; , &amp;#34;noto sans&amp;#34; , &amp;#34;liberation sans&amp;#34; , sans-serif , &amp;#34;apple color emoji&amp;#34; , &amp;#34;segoe ui emoji&amp;#34; , &amp;#34;segoe ui symbol&amp;#34; , &amp;#34;noto color emoji&amp;#34; ; background-color: rgb(33 , 37 , 41)&quot;&gt;&lt;font style=&quot;font-size: 10px&quot;&gt;Lorem ipsum dolor sit amet consectetur adipisicing elit. Molestiae modi cum ipsam ad, illo possimus laborum ut reiciendis obcaecati. Ducimus, quas. Corrupti, pariatur eaque? Reiciendis assumenda iusto sapiente inventore animi?&lt;/font&gt;&lt;/span&gt;&lt;br&gt;&lt;/p&gt;" style="text;html=1;strokeColor=none;fillColor=none;spacing=5;spacingTop=-20;whiteSpace=wrap;overflow=hidden;rounded=0;fontSize=8;fontColor=#FFFFFF;" vertex="1" parent="1">
                    <mxGeometry x="80" y="821" width="450" height="130" as="geometry"/>
                </mxCell>
                <mxCell id="149" value="&lt;b&gt;LINK&lt;/b&gt;" style="text;html=1;strokeColor=none;fillColor=none;align=center;verticalAlign=middle;whiteSpace=wrap;rounded=0;fontSize=10;fontColor=#FFFFFF;" vertex="1" parent="1">
                    <mxGeometry x="617" y="821" width="123.17" height="40" as="geometry"/>
                </mxCell>
                <mxCell id="150" value="Nhân viên" style="text;html=1;strokeColor=none;fillColor=none;align=center;verticalAlign=middle;whiteSpace=wrap;rounded=0;fontSize=10;fontColor=#FFFFFF;" vertex="1" parent="1">
                    <mxGeometry x="648.585" y="846" width="60" height="20" as="geometry"/>
                </mxCell>
                <mxCell id="151" value="Phòng Ban" style="text;html=1;strokeColor=none;fillColor=none;align=center;verticalAlign=middle;whiteSpace=wrap;rounded=0;fontSize=10;fontColor=#FFFFFF;" vertex="1" parent="1">
                    <mxGeometry x="648.585" y="861" width="60" height="20" as="geometry"/>
                </mxCell>
                <mxCell id="152" value="Bảng Lương" style="text;html=1;strokeColor=none;fillColor=none;align=center;verticalAlign=middle;whiteSpace=wrap;rounded=0;fontSize=10;fontColor=#FFFFFF;" vertex="1" parent="1">
                    <mxGeometry x="648.585" y="875" width="60" height="20" as="geometry"/>
                </mxCell>
                <mxCell id="153" value="Tên phòng ban" style="swimlane;fontSize=10;strokeWidth=0.5;fillColor=#B3B3B3;strokeColor=#36393d;fontColor=#000000;align=left;perimeterSpacing=0;portConstraintRotation=0;arcSize=15;" vertex="1" parent="1">
                    <mxGeometry x="118" y="680" width="118" height="50" as="geometry"/>
                </mxCell>
                <mxCell id="155" value="Số lượng nhân viên: 1" style="text;html=1;strokeColor=none;fillColor=none;align=center;verticalAlign=middle;whiteSpace=wrap;rounded=0;fontSize=10;fontColor=#000000;" vertex="1" parent="1">
                    <mxGeometry x="118.00000000000003" y="700" width="110" height="30" as="geometry"/>
                </mxCell>
                <mxCell id="157" value="Tên phòng ban" style="swimlane;fontSize=10;strokeWidth=0.5;fillColor=#B3B3B3;strokeColor=#36393d;fontColor=#000000;align=left;perimeterSpacing=0;portConstraintRotation=0;arcSize=15;" vertex="1" parent="1">
                    <mxGeometry x="288" y="680" width="118" height="50" as="geometry"/>
                </mxCell>
                <mxCell id="158" value="Số lượng nhân viên: 1" style="text;html=1;strokeColor=none;fillColor=none;align=center;verticalAlign=middle;whiteSpace=wrap;rounded=0;fontSize=10;fontColor=#000000;" vertex="1" parent="1">
                    <mxGeometry x="288" y="700" width="110" height="30" as="geometry"/>
                </mxCell>
                <mxCell id="159" value="Tên phòng ban" style="swimlane;fontSize=10;strokeWidth=0.5;fillColor=#B3B3B3;strokeColor=#36393d;fontColor=#000000;align=left;perimeterSpacing=0;portConstraintRotation=0;arcSize=15;" vertex="1" parent="1">
                    <mxGeometry x="456.0799999999999" y="680" width="118" height="50" as="geometry"/>
                </mxCell>
                <mxCell id="160" value="Số lượng nhân viên: 1" style="text;html=1;strokeColor=none;fillColor=none;align=center;verticalAlign=middle;whiteSpace=wrap;rounded=0;fontSize=10;fontColor=#000000;" vertex="1" parent="1">
                    <mxGeometry x="456.0799999999999" y="700" width="110" height="30" as="geometry"/>
                </mxCell>
                <mxCell id="161" value="Tên phòng ban" style="swimlane;fontSize=10;strokeWidth=0.5;fillColor=#B3B3B3;strokeColor=#36393d;fontColor=#000000;align=left;perimeterSpacing=0;portConstraintRotation=0;arcSize=15;" vertex="1" parent="1">
                    <mxGeometry x="622.17" y="680" width="118" height="50" as="geometry"/>
                </mxCell>
                <mxCell id="162" value="Số lượng nhân viên: 1" style="text;html=1;strokeColor=none;fillColor=none;align=center;verticalAlign=middle;whiteSpace=wrap;rounded=0;fontSize=10;fontColor=#000000;" vertex="1" parent="1">
                    <mxGeometry x="622.17" y="700" width="110" height="30" as="geometry"/>
                </mxCell>
                <mxCell id="163" value="Tên phòng ban" style="swimlane;fontSize=10;strokeWidth=0.5;fillColor=#B3B3B3;strokeColor=#36393d;fontColor=#000000;align=left;perimeterSpacing=0;portConstraintRotation=0;arcSize=15;" vertex="1" parent="1">
                    <mxGeometry x="118" y="749" width="118" height="50" as="geometry"/>
                </mxCell>
                <mxCell id="164" value="Số lượng nhân viên: 1" style="text;html=1;strokeColor=none;fillColor=none;align=center;verticalAlign=middle;whiteSpace=wrap;rounded=0;fontSize=10;fontColor=#000000;" vertex="1" parent="1">
                    <mxGeometry x="118.00000000000003" y="769" width="110" height="30" as="geometry"/>
                </mxCell>
                <mxCell id="166" value="&lt;b&gt;Bảng lương:&amp;nbsp;http://localhost:9000/salary&lt;/b&gt;" style="text;html=1;strokeColor=none;fillColor=none;align=center;verticalAlign=middle;whiteSpace=wrap;rounded=0;" vertex="1" parent="1">
                    <mxGeometry x="40" y="988" width="320" height="30" as="geometry"/>
                </mxCell>
                <mxCell id="167" value="" style="rounded=0;whiteSpace=wrap;html=1;fillColor=#eeeeee;strokeColor=none;" vertex="1" parent="1">
                    <mxGeometry x="80" y="1078" width="700" height="492" as="geometry"/>
                </mxCell>
                <mxCell id="168" value="" style="rounded=0;whiteSpace=wrap;html=1;fillColor=#1ba1e2;fontColor=#ffffff;strokeColor=none;" vertex="1" parent="1">
                    <mxGeometry x="80" y="1028" width="700" height="50" as="geometry"/>
                </mxCell>
                <mxCell id="169" value="&lt;font color=&quot;#ff0000&quot;&gt;Logo&lt;/font&gt;" style="ellipse;whiteSpace=wrap;html=1;fillColor=none;" vertex="1" parent="1">
                    <mxGeometry x="110" y="1040.5" width="43.75" height="25" as="geometry"/>
                </mxCell>
                <mxCell id="170" value="Nhân Viên" style="text;html=1;strokeColor=none;fillColor=none;align=center;verticalAlign=middle;whiteSpace=wrap;rounded=0;" vertex="1" parent="1">
                    <mxGeometry x="180" y="1038" width="60" height="30" as="geometry"/>
                </mxCell>
                <mxCell id="171" value="Phòng Ban" style="text;html=1;strokeColor=none;fillColor=none;align=center;verticalAlign=middle;whiteSpace=wrap;rounded=0;" vertex="1" parent="1">
                    <mxGeometry x="254" y="1038" width="80" height="30" as="geometry"/>
                </mxCell>
                <mxCell id="172" value="Bảng Lương" style="text;html=1;strokeColor=none;fillColor=none;align=center;verticalAlign=middle;whiteSpace=wrap;rounded=0;" vertex="1" parent="1">
                    <mxGeometry x="344" y="1038" width="80" height="30" as="geometry"/>
                </mxCell>
                <mxCell id="173" value="Nhân viên / Bảng lương" style="rounded=1;whiteSpace=wrap;html=1;fillColor=#d0cee2;strokeColor=none;align=left;" vertex="1" parent="1">
                    <mxGeometry x="112" y="1088" width="638" height="30" as="geometry"/>
                </mxCell>
                <mxCell id="176" value="&lt;font color=&quot;#b3b3b3&quot;&gt;Mặc định&lt;/font&gt;" style="rounded=0;whiteSpace=wrap;html=1;fillColor=none;strokeColor=#000000;align=left;" vertex="1" parent="1">
                    <mxGeometry x="669" y="1127" width="80" height="30" as="geometry"/>
                </mxCell>
                <mxCell id="177" value="&lt;font color=&quot;#000000&quot;&gt;Hệ số lương&lt;/font&gt;" style="text;html=1;align=center;verticalAlign=middle;whiteSpace=wrap;rounded=0;fillColor=none;strokeColor=none;" vertex="1" parent="1">
                    <mxGeometry x="562" y="1127" width="107" height="30" as="geometry"/>
                </mxCell>
                <mxCell id="178" value="" style="triangle;html=1;whiteSpace=wrap;rotation=90;fillColor=none;strokeColor=#000000;" vertex="1" parent="1">
                    <mxGeometry x="733" y="1137.5" width="6" height="9" as="geometry"/>
                </mxCell>
                <mxCell id="215" value="" style="rounded=0;whiteSpace=wrap;html=1;fontSize=8;fontColor=#FFFFFF;strokeColor=none;gradientColor=none;" vertex="1" parent="1">
                    <mxGeometry x="80" y="1439" width="700" height="140" as="geometry"/>
                </mxCell>
                <mxCell id="216" value="&lt;h1&gt;Heading&lt;/h1&gt;&lt;p style=&quot;text-align: justify&quot;&gt;&lt;span style=&quot;font-family: , , &amp;#34;segoe ui&amp;#34; , &amp;#34;roboto&amp;#34; , &amp;#34;helvetica neue&amp;#34; , &amp;#34;arial&amp;#34; , &amp;#34;noto sans&amp;#34; , &amp;#34;liberation sans&amp;#34; , sans-serif , &amp;#34;apple color emoji&amp;#34; , &amp;#34;segoe ui emoji&amp;#34; , &amp;#34;segoe ui symbol&amp;#34; , &amp;#34;noto color emoji&amp;#34; ; background-color: rgb(33 , 37 , 41)&quot;&gt;&lt;font style=&quot;font-size: 10px&quot;&gt;Lorem ipsum dolor sit amet consectetur adipisicing elit. Molestiae modi cum ipsam ad, illo possimus laborum ut reiciendis obcaecati. Ducimus, quas. Corrupti, pariatur eaque? Reiciendis assumenda iusto sapiente inventore animi?&lt;/font&gt;&lt;/span&gt;&lt;br&gt;&lt;/p&gt;" style="text;html=1;strokeColor=none;fillColor=none;spacing=5;spacingTop=-20;whiteSpace=wrap;overflow=hidden;rounded=0;fontSize=8;fontColor=#FFFFFF;" vertex="1" parent="1">
                    <mxGeometry x="80" y="1444" width="450" height="130" as="geometry"/>
                </mxCell>
                <mxCell id="217" value="&lt;b&gt;LINK&lt;/b&gt;" style="text;html=1;strokeColor=none;fillColor=none;align=center;verticalAlign=middle;whiteSpace=wrap;rounded=0;fontSize=10;fontColor=#FFFFFF;" vertex="1" parent="1">
                    <mxGeometry x="617" y="1444" width="123.17" height="40" as="geometry"/>
                </mxCell>
                <mxCell id="218" value="Nhân viên" style="text;html=1;strokeColor=none;fillColor=none;align=center;verticalAlign=middle;whiteSpace=wrap;rounded=0;fontSize=10;fontColor=#FFFFFF;" vertex="1" parent="1">
                    <mxGeometry x="648.585" y="1469" width="60" height="20" as="geometry"/>
                </mxCell>
                <mxCell id="219" value="Phòng Ban" style="text;html=1;strokeColor=none;fillColor=none;align=center;verticalAlign=middle;whiteSpace=wrap;rounded=0;fontSize=10;fontColor=#FFFFFF;" vertex="1" parent="1">
                    <mxGeometry x="648.585" y="1484" width="60" height="20" as="geometry"/>
                </mxCell>
                <mxCell id="220" value="Bảng Lương" style="text;html=1;strokeColor=none;fillColor=none;align=center;verticalAlign=middle;whiteSpace=wrap;rounded=0;fontSize=10;fontColor=#FFFFFF;" vertex="1" parent="1">
                    <mxGeometry x="648.585" y="1498" width="60" height="20" as="geometry"/>
                </mxCell>
                <mxCell id="221" value="&lt;font color=&quot;#b3b3b3&quot;&gt;Mặc định&lt;/font&gt;" style="rounded=0;whiteSpace=wrap;html=1;fillColor=none;strokeColor=#000000;align=left;" vertex="1" parent="1">
                    <mxGeometry x="430.08" y="1127" width="80" height="30" as="geometry"/>
                </mxCell>
                <mxCell id="222" value="&lt;font color=&quot;#000000&quot;&gt;Mức lương&lt;/font&gt;" style="text;html=1;align=center;verticalAlign=middle;whiteSpace=wrap;rounded=0;fillColor=none;strokeColor=none;" vertex="1" parent="1">
                    <mxGeometry x="350.08" y="1127" width="80" height="30" as="geometry"/>
                </mxCell>
                <mxCell id="223" value="" style="triangle;html=1;whiteSpace=wrap;rotation=90;fillColor=none;strokeColor=#000000;" vertex="1" parent="1">
                    <mxGeometry x="494.08" y="1137.5" width="6" height="9" as="geometry"/>
                </mxCell>
                <mxCell id="224" value="&lt;font color=&quot;#b3b3b3&quot;&gt;Mặc định&lt;/font&gt;" style="rounded=0;whiteSpace=wrap;html=1;fillColor=none;strokeColor=#000000;align=left;" vertex="1" parent="1">
                    <mxGeometry x="191" y="1127" width="80" height="30" as="geometry"/>
                </mxCell>
                <mxCell id="225" value="&lt;font color=&quot;#000000&quot;&gt;Mã số lương&lt;/font&gt;" style="text;html=1;align=center;verticalAlign=middle;whiteSpace=wrap;rounded=0;fillColor=none;strokeColor=none;" vertex="1" parent="1">
                    <mxGeometry x="111" y="1127" width="80" height="30" as="geometry"/>
                </mxCell>
                <mxCell id="226" value="" style="triangle;html=1;whiteSpace=wrap;rotation=90;fillColor=none;strokeColor=#000000;" vertex="1" parent="1">
                    <mxGeometry x="255" y="1137.5" width="6" height="9" as="geometry"/>
                </mxCell>
                <mxCell id="231" value="Lương: 40000000" style="swimlane;fontSize=10;fontColor=#000000;strokeColor=#004C99;strokeWidth=0.5;fillColor=#B3B3B3;gradientColor=none;direction=west;" vertex="1" parent="1">
                    <mxGeometry x="112.42" y="1171" width="170" height="110" as="geometry"/>
                </mxCell>
                <mxCell id="232" value="&lt;b&gt;Nguyễn Văn X..&lt;/b&gt;" style="text;html=1;strokeColor=none;fillColor=none;align=left;verticalAlign=middle;whiteSpace=wrap;rounded=0;fontSize=10;fontColor=#000000;" vertex="1" parent="1">
                    <mxGeometry x="112.00000000000001" y="1171" width="130.42" height="20" as="geometry"/>
                </mxCell>
                <mxCell id="233" value="Mã nhân viên: 1" style="text;html=1;strokeColor=none;fillColor=none;align=left;verticalAlign=middle;whiteSpace=wrap;rounded=0;fontSize=10;fontColor=#000000;" vertex="1" parent="1">
                    <mxGeometry x="112.42" y="1191" width="130" height="20" as="geometry"/>
                </mxCell>
                <mxCell id="234" value="Hệ số lương: 1" style="text;html=1;strokeColor=none;fillColor=none;align=left;verticalAlign=middle;whiteSpace=wrap;rounded=0;fontSize=10;fontColor=#000000;" vertex="1" parent="1">
                    <mxGeometry x="112.00000000000001" y="1211" width="130.42" height="20" as="geometry"/>
                </mxCell>
                <mxCell id="235" value="Số ngày làm thêm: 1" style="text;html=1;strokeColor=none;fillColor=none;align=left;verticalAlign=middle;whiteSpace=wrap;rounded=0;fontSize=10;fontColor=#000000;" vertex="1" parent="1">
                    <mxGeometry x="112.00000000000001" y="1231" width="130.42" height="20" as="geometry"/>
                </mxCell>
                <mxCell id="241" value="Lương: 40000000" style="swimlane;fontSize=10;fontColor=#000000;strokeColor=#004C99;strokeWidth=0.5;fillColor=#B3B3B3;gradientColor=none;direction=west;" vertex="1" parent="1">
                    <mxGeometry x="580" y="1171" width="170" height="110" as="geometry"/>
                </mxCell>
                <mxCell id="242" value="&lt;b&gt;Nguyễn Văn X..&lt;/b&gt;" style="text;html=1;strokeColor=none;fillColor=none;align=left;verticalAlign=middle;whiteSpace=wrap;rounded=0;fontSize=10;fontColor=#000000;" vertex="1" parent="1">
                    <mxGeometry x="579.5799999999999" y="1171" width="130.42" height="20" as="geometry"/>
                </mxCell>
                <mxCell id="243" value="Mã nhân viên: 1" style="text;html=1;strokeColor=none;fillColor=none;align=left;verticalAlign=middle;whiteSpace=wrap;rounded=0;fontSize=10;fontColor=#000000;" vertex="1" parent="1">
                    <mxGeometry x="580" y="1191" width="130" height="20" as="geometry"/>
                </mxCell>
                <mxCell id="244" value="Hệ số lương: 1" style="text;html=1;strokeColor=none;fillColor=none;align=left;verticalAlign=middle;whiteSpace=wrap;rounded=0;fontSize=10;fontColor=#000000;" vertex="1" parent="1">
                    <mxGeometry x="579.5799999999999" y="1211" width="130.42" height="20" as="geometry"/>
                </mxCell>
                <mxCell id="245" value="Số ngày làm thêm: 1" style="text;html=1;strokeColor=none;fillColor=none;align=left;verticalAlign=middle;whiteSpace=wrap;rounded=0;fontSize=10;fontColor=#000000;" vertex="1" parent="1">
                    <mxGeometry x="579.5799999999999" y="1231" width="130.42" height="20" as="geometry"/>
                </mxCell>
                <mxCell id="246" value="Lương: 40000000" style="swimlane;fontSize=10;fontColor=#000000;strokeColor=#004C99;strokeWidth=0.5;fillColor=#B3B3B3;gradientColor=none;direction=west;" vertex="1" parent="1">
                    <mxGeometry x="349.21000000000004" y="1171" width="170" height="110" as="geometry"/>
                </mxCell>
                <mxCell id="247" value="&lt;b&gt;Nguyễn Văn X..&lt;/b&gt;" style="text;html=1;strokeColor=none;fillColor=none;align=left;verticalAlign=middle;whiteSpace=wrap;rounded=0;fontSize=10;fontColor=#000000;" vertex="1" parent="1">
                    <mxGeometry x="348.78999999999996" y="1171" width="130.42" height="20" as="geometry"/>
                </mxCell>
                <mxCell id="248" value="Mã nhân viên: 1" style="text;html=1;strokeColor=none;fillColor=none;align=left;verticalAlign=middle;whiteSpace=wrap;rounded=0;fontSize=10;fontColor=#000000;" vertex="1" parent="1">
                    <mxGeometry x="349.21000000000004" y="1191" width="130" height="20" as="geometry"/>
                </mxCell>
                <mxCell id="249" value="Hệ số lương: 1" style="text;html=1;strokeColor=none;fillColor=none;align=left;verticalAlign=middle;whiteSpace=wrap;rounded=0;fontSize=10;fontColor=#000000;" vertex="1" parent="1">
                    <mxGeometry x="348.78999999999996" y="1211" width="130.42" height="20" as="geometry"/>
                </mxCell>
                <mxCell id="250" value="Số ngày làm thêm: 1" style="text;html=1;strokeColor=none;fillColor=none;align=left;verticalAlign=middle;whiteSpace=wrap;rounded=0;fontSize=10;fontColor=#000000;" vertex="1" parent="1">
                    <mxGeometry x="348.78999999999996" y="1231" width="130.42" height="20" as="geometry"/>
                </mxCell>
                <mxCell id="251" value="Lương: 40000000" style="swimlane;fontSize=10;fontColor=#000000;strokeColor=#004C99;strokeWidth=0.5;fillColor=#B3B3B3;gradientColor=none;direction=west;" vertex="1" parent="1">
                    <mxGeometry x="112.84000000000002" y="1311" width="170" height="110" as="geometry"/>
                </mxCell>
                <mxCell id="252" value="&lt;b&gt;Nguyễn Văn X..&lt;/b&gt;" style="text;html=1;strokeColor=none;fillColor=none;align=left;verticalAlign=middle;whiteSpace=wrap;rounded=0;fontSize=10;fontColor=#000000;" vertex="1" parent="1">
                    <mxGeometry x="112.42" y="1311" width="130.42" height="20" as="geometry"/>
                </mxCell>
                <mxCell id="253" value="Mã nhân viên: 1" style="text;html=1;strokeColor=none;fillColor=none;align=left;verticalAlign=middle;whiteSpace=wrap;rounded=0;fontSize=10;fontColor=#000000;" vertex="1" parent="1">
                    <mxGeometry x="112.84000000000002" y="1331" width="130" height="20" as="geometry"/>
                </mxCell>
                <mxCell id="254" value="Hệ số lương: 1" style="text;html=1;strokeColor=none;fillColor=none;align=left;verticalAlign=middle;whiteSpace=wrap;rounded=0;fontSize=10;fontColor=#000000;" vertex="1" parent="1">
                    <mxGeometry x="112.42" y="1351" width="130.42" height="20" as="geometry"/>
                </mxCell>
                <mxCell id="255" value="Số ngày làm thêm: 1" style="text;html=1;strokeColor=none;fillColor=none;align=left;verticalAlign=middle;whiteSpace=wrap;rounded=0;fontSize=10;fontColor=#000000;" vertex="1" parent="1">
                    <mxGeometry x="112.42" y="1371" width="130.42" height="20" as="geometry"/>
                </mxCell>
                <mxCell id="256" value="Lương: 40000000" style="swimlane;fontSize=10;fontColor=#000000;strokeColor=#004C99;strokeWidth=0.5;fillColor=#B3B3B3;gradientColor=none;direction=west;" vertex="1" parent="1">
                    <mxGeometry x="580.42" y="1311" width="170" height="110" as="geometry"/>
                </mxCell>
                <mxCell id="257" value="&lt;b&gt;Nguyễn Văn X..&lt;/b&gt;" style="text;html=1;strokeColor=none;fillColor=none;align=left;verticalAlign=middle;whiteSpace=wrap;rounded=0;fontSize=10;fontColor=#000000;" vertex="1" parent="1">
                    <mxGeometry x="579.9999999999999" y="1311" width="130.42" height="20" as="geometry"/>
                </mxCell>
                <mxCell id="258" value="Mã nhân viên: 1" style="text;html=1;strokeColor=none;fillColor=none;align=left;verticalAlign=middle;whiteSpace=wrap;rounded=0;fontSize=10;fontColor=#000000;" vertex="1" parent="1">
                    <mxGeometry x="580.42" y="1331" width="130" height="20" as="geometry"/>
                </mxCell>
                <mxCell id="259" value="Hệ số lương: 1" style="text;html=1;strokeColor=none;fillColor=none;align=left;verticalAlign=middle;whiteSpace=wrap;rounded=0;fontSize=10;fontColor=#000000;" vertex="1" parent="1">
                    <mxGeometry x="579.9999999999999" y="1351" width="130.42" height="20" as="geometry"/>
                </mxCell>
                <mxCell id="260" value="Số ngày làm thêm: 1" style="text;html=1;strokeColor=none;fillColor=none;align=left;verticalAlign=middle;whiteSpace=wrap;rounded=0;fontSize=10;fontColor=#000000;" vertex="1" parent="1">
                    <mxGeometry x="579.9999999999999" y="1371" width="130.42" height="20" as="geometry"/>
                </mxCell>
                <mxCell id="261" value="Lương: 40000000" style="swimlane;fontSize=10;fontColor=#000000;strokeColor=#004C99;strokeWidth=0.5;fillColor=#B3B3B3;gradientColor=none;direction=west;" vertex="1" parent="1">
                    <mxGeometry x="349.63000000000005" y="1311" width="170" height="110" as="geometry"/>
                </mxCell>
                <mxCell id="262" value="&lt;b&gt;Nguyễn Văn X..&lt;/b&gt;" style="text;html=1;strokeColor=none;fillColor=none;align=left;verticalAlign=middle;whiteSpace=wrap;rounded=0;fontSize=10;fontColor=#000000;" vertex="1" parent="1">
                    <mxGeometry x="349.21" y="1311" width="130.42" height="20" as="geometry"/>
                </mxCell>
                <mxCell id="263" value="Mã nhân viên: 1" style="text;html=1;strokeColor=none;fillColor=none;align=left;verticalAlign=middle;whiteSpace=wrap;rounded=0;fontSize=10;fontColor=#000000;" vertex="1" parent="1">
                    <mxGeometry x="349.63000000000005" y="1331" width="130" height="20" as="geometry"/>
                </mxCell>
                <mxCell id="264" value="Hệ số lương: 1" style="text;html=1;strokeColor=none;fillColor=none;align=left;verticalAlign=middle;whiteSpace=wrap;rounded=0;fontSize=10;fontColor=#000000;" vertex="1" parent="1">
                    <mxGeometry x="349.21" y="1351" width="130.42" height="20" as="geometry"/>
                </mxCell>
                <mxCell id="265" value="Số ngày làm thêm: 1" style="text;html=1;strokeColor=none;fillColor=none;align=left;verticalAlign=middle;whiteSpace=wrap;rounded=0;fontSize=10;fontColor=#000000;" vertex="1" parent="1">
                    <mxGeometry x="349.21" y="1371" width="130.42" height="20" as="geometry"/>
                </mxCell>
                <mxCell id="266" value="&lt;b&gt;Trang chủ:&amp;nbsp;http://localhost:9000/staff/1&lt;/b&gt;" style="text;html=1;strokeColor=none;fillColor=none;align=center;verticalAlign=middle;whiteSpace=wrap;rounded=0;" vertex="1" parent="1">
                    <mxGeometry x="60" y="1640" width="270" height="30" as="geometry"/>
                </mxCell>
                <mxCell id="267" value="" style="rounded=0;whiteSpace=wrap;html=1;fillColor=#eeeeee;strokeColor=none;" vertex="1" parent="1">
                    <mxGeometry x="84" y="1730" width="700" height="310" as="geometry"/>
                </mxCell>
                <mxCell id="268" value="" style="rounded=0;whiteSpace=wrap;html=1;fillColor=#1ba1e2;fontColor=#ffffff;strokeColor=none;" vertex="1" parent="1">
                    <mxGeometry x="84" y="1680" width="700" height="50" as="geometry"/>
                </mxCell>
                <mxCell id="269" value="&lt;font color=&quot;#ff0000&quot;&gt;Logo&lt;/font&gt;" style="ellipse;whiteSpace=wrap;html=1;fillColor=none;" vertex="1" parent="1">
                    <mxGeometry x="114" y="1692.5" width="43.75" height="25" as="geometry"/>
                </mxCell>
                <mxCell id="270" value="Nhân Viên" style="text;html=1;strokeColor=none;fillColor=none;align=center;verticalAlign=middle;whiteSpace=wrap;rounded=0;" vertex="1" parent="1">
                    <mxGeometry x="184" y="1690" width="60" height="30" as="geometry"/>
                </mxCell>
                <mxCell id="271" value="Phòng Ban" style="text;html=1;strokeColor=none;fillColor=none;align=center;verticalAlign=middle;whiteSpace=wrap;rounded=0;" vertex="1" parent="1">
                    <mxGeometry x="258" y="1690" width="80" height="30" as="geometry"/>
                </mxCell>
                <mxCell id="272" value="Bảng Lương" style="text;html=1;strokeColor=none;fillColor=none;align=center;verticalAlign=middle;whiteSpace=wrap;rounded=0;" vertex="1" parent="1">
                    <mxGeometry x="348" y="1690" width="80" height="30" as="geometry"/>
                </mxCell>
                <mxCell id="273" value="Nhân viên / Nguyễn Văn B" style="rounded=1;whiteSpace=wrap;html=1;fillColor=#d0cee2;strokeColor=none;align=left;" vertex="1" parent="1">
                    <mxGeometry x="116" y="1740" width="634" height="30" as="geometry"/>
                </mxCell>
                <mxCell id="279" value="" style="rounded=1;whiteSpace=wrap;html=1;absoluteArcSize=1;arcSize=14;strokeWidth=2;fillColor=none;strokeColor=#B3B3B3;" vertex="1" parent="1">
                    <mxGeometry x="117.25" y="1786" width="87.5" height="100" as="geometry"/>
                </mxCell>
                <mxCell id="280" value="&lt;font color=&quot;#ffffff&quot; style=&quot;font-size: 7px&quot;&gt;Image&lt;/font&gt;" style="shape=actor;whiteSpace=wrap;html=1;fontColor=#B3B3B3;strokeColor=#004C99;gradientColor=none;" vertex="1" parent="1">
                    <mxGeometry x="131" y="1794" width="60" height="84" as="geometry"/>
                </mxCell>
                <mxCell id="315" value="" style="rounded=0;whiteSpace=wrap;html=1;fontSize=8;fontColor=#FFFFFF;strokeColor=none;gradientColor=none;" vertex="1" parent="1">
                    <mxGeometry x="84" y="1900" width="700" height="140" as="geometry"/>
                </mxCell>
                <mxCell id="316" value="&lt;h1&gt;Heading&lt;/h1&gt;&lt;p style=&quot;text-align: justify&quot;&gt;&lt;span style=&quot;font-family: , , &amp;#34;segoe ui&amp;#34; , &amp;#34;roboto&amp;#34; , &amp;#34;helvetica neue&amp;#34; , &amp;#34;arial&amp;#34; , &amp;#34;noto sans&amp;#34; , &amp;#34;liberation sans&amp;#34; , sans-serif , &amp;#34;apple color emoji&amp;#34; , &amp;#34;segoe ui emoji&amp;#34; , &amp;#34;segoe ui symbol&amp;#34; , &amp;#34;noto color emoji&amp;#34; ; background-color: rgb(33 , 37 , 41)&quot;&gt;&lt;font style=&quot;font-size: 10px&quot;&gt;Lorem ipsum dolor sit amet consectetur adipisicing elit. Molestiae modi cum ipsam ad, illo possimus laborum ut reiciendis obcaecati. Ducimus, quas. Corrupti, pariatur eaque? Reiciendis assumenda iusto sapiente inventore animi?&lt;/font&gt;&lt;/span&gt;&lt;br&gt;&lt;/p&gt;" style="text;html=1;strokeColor=none;fillColor=none;spacing=5;spacingTop=-20;whiteSpace=wrap;overflow=hidden;rounded=0;fontSize=8;fontColor=#FFFFFF;" vertex="1" parent="1">
                    <mxGeometry x="84" y="1905" width="450" height="130" as="geometry"/>
                </mxCell>
                <mxCell id="317" value="&lt;b&gt;LINK&lt;/b&gt;" style="text;html=1;strokeColor=none;fillColor=none;align=center;verticalAlign=middle;whiteSpace=wrap;rounded=0;fontSize=10;fontColor=#FFFFFF;" vertex="1" parent="1">
                    <mxGeometry x="621" y="1905" width="123.17" height="40" as="geometry"/>
                </mxCell>
                <mxCell id="318" value="Nhân viên" style="text;html=1;strokeColor=none;fillColor=none;align=center;verticalAlign=middle;whiteSpace=wrap;rounded=0;fontSize=10;fontColor=#FFFFFF;" vertex="1" parent="1">
                    <mxGeometry x="652.585" y="1930" width="60" height="20" as="geometry"/>
                </mxCell>
                <mxCell id="319" value="Phòng Ban" style="text;html=1;strokeColor=none;fillColor=none;align=center;verticalAlign=middle;whiteSpace=wrap;rounded=0;fontSize=10;fontColor=#FFFFFF;" vertex="1" parent="1">
                    <mxGeometry x="652.585" y="1945" width="60" height="20" as="geometry"/>
                </mxCell>
                <mxCell id="320" value="Bảng Lương" style="text;html=1;strokeColor=none;fillColor=none;align=center;verticalAlign=middle;whiteSpace=wrap;rounded=0;fontSize=10;fontColor=#FFFFFF;" vertex="1" parent="1">
                    <mxGeometry x="652.585" y="1959" width="60" height="20" as="geometry"/>
                </mxCell>
                <mxCell id="322" value="&lt;b&gt;Họ và tên: Nguyễn Văn B&lt;/b&gt;" style="text;html=1;strokeColor=none;fillColor=none;align=left;verticalAlign=middle;whiteSpace=wrap;rounded=0;fontSize=10;fontColor=#000000;" vertex="1" parent="1">
                    <mxGeometry x="223" y="1786" width="137" height="14" as="geometry"/>
                </mxCell>
                <mxCell id="323" value="Ngày sinh: 01/01/2000" style="text;html=1;strokeColor=none;fillColor=none;align=left;verticalAlign=middle;whiteSpace=wrap;rounded=0;fontSize=10;fontColor=#000000;" vertex="1" parent="1">
                    <mxGeometry x="222.5" y="1800" width="137" height="14" as="geometry"/>
                </mxCell>
                <mxCell id="324" value="Ngày vào công ty: 30/04/2019" style="text;html=1;strokeColor=none;fillColor=none;align=left;verticalAlign=middle;whiteSpace=wrap;rounded=0;fontSize=10;fontColor=#000000;" vertex="1" parent="1">
                    <mxGeometry x="222.5" y="1814" width="137" height="14" as="geometry"/>
                </mxCell>
                <mxCell id="325" value="Phòng ban: HR&lt;span style=&quot;color: rgba(0 , 0 , 0 , 0) ; font-family: monospace ; font-size: 0px&quot;&gt;%3CmxGraphModel%3E%3Croot%3E%3CmxCell%20id%3D%220%22%2F%3E%3CmxCell%20id%3D%221%22%20parent%3D%220%22%2F%3E%3CmxCell%20id%3D%222%22%20value%3D%22Ng%C3%A0y%20v%C3%A0o%20c%C3%B4ng%20ty%3A%2030%2F04%2F2019%22%20style%3D%22text%3Bhtml%3D1%3BstrokeColor%3Dnone%3BfillColor%3Dnone%3Balign%3Dleft%3BverticalAlign%3Dmiddle%3BwhiteSpace%3Dwrap%3Brounded%3D0%3BfontSize%3D10%3BfontColor%3D%23000000%3B%22%20vertex%3D%221%22%20parent%3D%221%22%3E%3CmxGeometry%20x%3D%22222.5%22%20y%3D%221814%22%20width%3D%22137%22%20height%3D%2214%22%20as%3D%22geometry%22%2F%3E%3C%2FmxCell%3E%3C%2Froot%3E%3C%2FmxGraphModel%3E&lt;/span&gt;" style="text;html=1;strokeColor=none;fillColor=none;align=left;verticalAlign=middle;whiteSpace=wrap;rounded=0;fontSize=10;fontColor=#000000;" vertex="1" parent="1">
                    <mxGeometry x="222.5" y="1828" width="137" height="14" as="geometry"/>
                </mxCell>
                <mxCell id="326" value="Số ngày nghỉ còn lại: 1" style="text;html=1;strokeColor=none;fillColor=none;align=left;verticalAlign=middle;whiteSpace=wrap;rounded=0;fontSize=10;fontColor=#000000;" vertex="1" parent="1">
                    <mxGeometry x="222.5" y="1842" width="137" height="14" as="geometry"/>
                </mxCell>
                <mxCell id="327" value="Số ngày đã làm thêm: 2" style="text;html=1;strokeColor=none;fillColor=none;align=left;verticalAlign=middle;whiteSpace=wrap;rounded=0;fontSize=10;fontColor=#000000;" vertex="1" parent="1">
                    <mxGeometry x="222.5" y="1856" width="137" height="14" as="geometry"/>
                </mxCell>
                <mxCell id="329" style="edgeStyle=none;html=1;entryX=0;entryY=0.5;entryDx=0;entryDy=0;fontSize=10;fontColor=#000000;exitX=0.945;exitY=0.48;exitDx=0;exitDy=0;exitPerimeter=0;" edge="1" parent="1" source="328" target="4">
                    <mxGeometry relative="1" as="geometry"/>
                </mxCell>
                <mxCell id="328" value="HEADER" style="shape=note;whiteSpace=wrap;html=1;backgroundOutline=1;darkOpacity=0.05;fontSize=10;fontColor=#000000;strokeColor=#B3B3B3;strokeWidth=0.5;fillColor=#B3B3B3;gradientColor=none;" vertex="1" parent="1">
                    <mxGeometry x="-80" y="50" width="110" height="50" as="geometry"/>
                </mxCell>
                <mxCell id="331" style="edgeStyle=none;html=1;entryX=-0.002;entryY=0.295;entryDx=0;entryDy=0;entryPerimeter=0;fontSize=10;fontColor=#000000;" edge="1" parent="1" source="330" target="3">
                    <mxGeometry relative="1" as="geometry"/>
                </mxCell>
                <mxCell id="330" value="&lt;div&gt;&lt;span&gt;selection Render danh sách nhân viên khi nhấn vào navlink nhân viên hoặc nhấn vào logo hoặc page start&lt;/span&gt;&lt;/div&gt;" style="shape=note;whiteSpace=wrap;html=1;backgroundOutline=1;darkOpacity=0.05;fontSize=10;fontColor=#000000;strokeColor=#B3B3B3;strokeWidth=0.5;fillColor=#B3B3B3;gradientColor=none;align=left;" vertex="1" parent="1">
                    <mxGeometry x="-80" y="176" width="110" height="100" as="geometry"/>
                </mxCell>
                <mxCell id="333" style="edgeStyle=none;html=1;fontSize=10;fontColor=#000000;exitX=0.915;exitY=0.447;exitDx=0;exitDy=0;exitPerimeter=0;" edge="1" parent="1" source="332">
                    <mxGeometry relative="1" as="geometry">
                        <mxPoint x="80" y="458" as="targetPoint"/>
                    </mxGeometry>
                </mxCell>
                <mxCell id="332" value="Footer" style="shape=note;whiteSpace=wrap;html=1;backgroundOutline=1;darkOpacity=0.05;fontSize=10;fontColor=#000000;strokeColor=#B3B3B3;strokeWidth=0.5;fillColor=#B3B3B3;gradientColor=none;" vertex="1" parent="1">
                    <mxGeometry x="-80" y="440" width="110" height="40" as="geometry"/>
                </mxCell>
                <mxCell id="334" style="edgeStyle=none;html=1;entryX=0;entryY=0.5;entryDx=0;entryDy=0;fontSize=10;fontColor=#000000;exitX=0.945;exitY=0.48;exitDx=0;exitDy=0;exitPerimeter=0;" edge="1" parent="1" source="335">
                    <mxGeometry relative="1" as="geometry">
                        <mxPoint x="80" y="643.5" as="targetPoint"/>
                    </mxGeometry>
                </mxCell>
                <mxCell id="335" value="HEADER" style="shape=note;whiteSpace=wrap;html=1;backgroundOutline=1;darkOpacity=0.05;fontSize=10;fontColor=#000000;strokeColor=#B3B3B3;strokeWidth=0.5;fillColor=#B3B3B3;gradientColor=none;" vertex="1" parent="1">
                    <mxGeometry x="-80" y="618.5" width="110" height="50" as="geometry"/>
                </mxCell>
                <mxCell id="336" style="edgeStyle=none;html=1;entryX=-0.002;entryY=0.295;entryDx=0;entryDy=0;entryPerimeter=0;fontSize=10;fontColor=#000000;" edge="1" parent="1" source="337">
                    <mxGeometry relative="1" as="geometry">
                        <mxPoint x="78.59999999999991" y="787.3499999999999" as="targetPoint"/>
                    </mxGeometry>
                </mxCell>
                <mxCell id="337" value="&lt;div&gt;&lt;span&gt;selection Render danh sách phòng ban khi nhấn vào navlink Phòng ban&lt;/span&gt;&lt;/div&gt;" style="shape=note;whiteSpace=wrap;html=1;backgroundOutline=1;darkOpacity=0.05;fontSize=10;fontColor=#000000;strokeColor=#B3B3B3;strokeWidth=0.5;fillColor=#B3B3B3;gradientColor=none;align=left;" vertex="1" parent="1">
                    <mxGeometry x="-80" y="736.5" width="110" height="100" as="geometry"/>
                </mxCell>
                <mxCell id="338" style="edgeStyle=none;html=1;fontSize=10;fontColor=#000000;exitX=0.915;exitY=0.447;exitDx=0;exitDy=0;exitPerimeter=0;" edge="1" parent="1" source="339">
                    <mxGeometry relative="1" as="geometry">
                        <mxPoint x="80" y="913" as="targetPoint"/>
                    </mxGeometry>
                </mxCell>
                <mxCell id="339" value="Footer" style="shape=note;whiteSpace=wrap;html=1;backgroundOutline=1;darkOpacity=0.05;fontSize=10;fontColor=#000000;strokeColor=#B3B3B3;strokeWidth=0.5;fillColor=#B3B3B3;gradientColor=none;" vertex="1" parent="1">
                    <mxGeometry x="-80" y="895" width="110" height="40" as="geometry"/>
                </mxCell>
                <mxCell id="340" style="edgeStyle=none;html=1;entryX=0;entryY=0.5;entryDx=0;entryDy=0;fontSize=10;fontColor=#000000;exitX=0.945;exitY=0.48;exitDx=0;exitDy=0;exitPerimeter=0;" edge="1" parent="1" source="341">
                    <mxGeometry relative="1" as="geometry">
                        <mxPoint x="80" y="1053" as="targetPoint"/>
                    </mxGeometry>
                </mxCell>
                <mxCell id="341" value="HEADER" style="shape=note;whiteSpace=wrap;html=1;backgroundOutline=1;darkOpacity=0.05;fontSize=10;fontColor=#000000;strokeColor=#B3B3B3;strokeWidth=0.5;fillColor=#B3B3B3;gradientColor=none;" vertex="1" parent="1">
                    <mxGeometry x="-80" y="1028" width="110" height="50" as="geometry"/>
                </mxCell>
                <mxCell id="342" style="edgeStyle=none;html=1;entryX=-0.002;entryY=0.295;entryDx=0;entryDy=0;entryPerimeter=0;fontSize=10;fontColor=#000000;" edge="1" parent="1" source="343">
                    <mxGeometry relative="1" as="geometry">
                        <mxPoint x="78.59999999999991" y="1196.85" as="targetPoint"/>
                    </mxGeometry>
                </mxCell>
                <mxCell id="343" value="&lt;div&gt;&lt;span&gt;selection Render danh sách bảng lương nhân viên khi nhấn vào navlink Bảng lương&lt;/span&gt;&lt;/div&gt;" style="shape=note;whiteSpace=wrap;html=1;backgroundOutline=1;darkOpacity=0.05;fontSize=10;fontColor=#000000;strokeColor=#B3B3B3;strokeWidth=0.5;fillColor=#B3B3B3;gradientColor=none;align=left;" vertex="1" parent="1">
                    <mxGeometry x="-80" y="1146" width="110" height="100" as="geometry"/>
                </mxCell>
                <mxCell id="344" style="edgeStyle=none;html=1;fontSize=10;fontColor=#000000;exitX=0.915;exitY=0.447;exitDx=0;exitDy=0;exitPerimeter=0;" edge="1" parent="1" source="345">
                    <mxGeometry relative="1" as="geometry">
                        <mxPoint x="80" y="1509.5" as="targetPoint"/>
                    </mxGeometry>
                </mxCell>
                <mxCell id="345" value="Footer" style="shape=note;whiteSpace=wrap;html=1;backgroundOutline=1;darkOpacity=0.05;fontSize=10;fontColor=#000000;strokeColor=#B3B3B3;strokeWidth=0.5;fillColor=#B3B3B3;gradientColor=none;" vertex="1" parent="1">
                    <mxGeometry x="-80" y="1491.5" width="110" height="40" as="geometry"/>
                </mxCell>
                <mxCell id="346" style="edgeStyle=none;html=1;entryX=0;entryY=0.5;entryDx=0;entryDy=0;fontSize=10;fontColor=#000000;exitX=0.945;exitY=0.48;exitDx=0;exitDy=0;exitPerimeter=0;" edge="1" parent="1" source="347">
                    <mxGeometry relative="1" as="geometry">
                        <mxPoint x="84" y="1695" as="targetPoint"/>
                    </mxGeometry>
                </mxCell>
                <mxCell id="347" value="HEADER" style="shape=note;whiteSpace=wrap;html=1;backgroundOutline=1;darkOpacity=0.05;fontSize=10;fontColor=#000000;strokeColor=#B3B3B3;strokeWidth=0.5;fillColor=#B3B3B3;gradientColor=none;" vertex="1" parent="1">
                    <mxGeometry x="-76" y="1670" width="110" height="50" as="geometry"/>
                </mxCell>
                <mxCell id="348" style="edgeStyle=none;html=1;entryX=-0.002;entryY=0.295;entryDx=0;entryDy=0;entryPerimeter=0;fontSize=10;fontColor=#000000;" edge="1" parent="1" source="349">
                    <mxGeometry relative="1" as="geometry">
                        <mxPoint x="82.59999999999991" y="1838.85" as="targetPoint"/>
                    </mxGeometry>
                </mxCell>
                <mxCell id="349" value="&lt;div&gt;&lt;span&gt;selection Render&amp;nbsp; thông tin nhân viên khi nhấn vào nhân viên ở trang danh sách nhân viên&lt;/span&gt;&lt;/div&gt;" style="shape=note;whiteSpace=wrap;html=1;backgroundOutline=1;darkOpacity=0.05;fontSize=10;fontColor=#000000;strokeColor=#B3B3B3;strokeWidth=0.5;fillColor=#B3B3B3;gradientColor=none;align=left;" vertex="1" parent="1">
                    <mxGeometry x="-76" y="1788" width="110" height="100" as="geometry"/>
                </mxCell>
                <mxCell id="350" style="edgeStyle=none;html=1;fontSize=10;fontColor=#000000;exitX=0.915;exitY=0.447;exitDx=0;exitDy=0;exitPerimeter=0;" edge="1" parent="1" source="351">
                    <mxGeometry relative="1" as="geometry">
                        <mxPoint x="84" y="1993.4999999999995" as="targetPoint"/>
                    </mxGeometry>
                </mxCell>
                <mxCell id="351" value="Footer" style="shape=note;whiteSpace=wrap;html=1;backgroundOutline=1;darkOpacity=0.05;fontSize=10;fontColor=#000000;strokeColor=#B3B3B3;strokeWidth=0.5;fillColor=#B3B3B3;gradientColor=none;" vertex="1" parent="1">
                    <mxGeometry x="-76" y="1975.5" width="110" height="40" as="geometry"/>
                </mxCell>
            </root>
        </mxGraphModel>
    </diagram>
    <diagram id="veDunCYbkP4UlEFrfaII" name="Page-2">
        <mxGraphModel dx="1666" dy="1366" grid="1" gridSize="10" guides="1" tooltips="1" connect="1" arrows="1" fold="1" page="1" pageScale="1" pageWidth="850" pageHeight="1100" math="0" shadow="0">
            <root>
                <mxCell id="4U_DSwOKplB3_Bv_hLn9-0"/>
                <mxCell id="4U_DSwOKplB3_Bv_hLn9-1" parent="4U_DSwOKplB3_Bv_hLn9-0"/>
            </root>
        </mxGraphModel>
    </diagram>
</mxfile>